<svg width="433" height="1065" viewBox="0 0 433 1065" fill="none" xmlns="http://www.w3.org/2000/svg">
<mask id="path-1-inside-1_226_14" fill="white">
<path d="M0 200C0 89.5431 89.5431 0 200 0H433V1065H200C89.543 1065 0 975.457 0 865V200Z"/>
</mask>
<path d="M0 200C0 89.5431 89.5431 0 200 0H433V1065H200C89.543 1065 0 975.457 0 865V200Z" fill="#4152BA"/>
<path d="M-2 200C-2 88.4385 88.4385 -2 200 -2H433V2H200C90.6476 2 2 90.6476 2 200H-2ZM433 1067H200C88.4385 1067 -2 976.562 -2 865H2C2 974.352 90.6476 1063 200 1063H433V1067ZM200 1067C88.4385 1067 -2 976.562 -2 865V200C-2 88.4385 88.4385 -2 200 -2V2C90.6476 2 2 90.6476 2 200V865C2 974.352 90.6476 1063 200 1063V1067ZM433 0V1065V0Z" fill="black" fill-opacity="0.5" mask="url(#path-1-inside-1_226_14)"/>
</svg>
