<svg width="433" height="1065" viewBox="0 0 433 1065" fill="none" xmlns="http://www.w3.org/2000/svg">
<mask id="path-1-inside-1_249_2" fill="white">
<path d="M0 200C0 89.5431 89.5431 0 200 0H433V1065H200C89.543 1065 0 975.457 0 865V200Z"/>
</mask>
<path d="M0 200C0 89.5431 89.5431 0 200 0H433V1065H200C89.543 1065 0 975.457 0 865V200Z" fill="#4152BA"/>
<path d="M-2 200C-2 88.4385 88.4385 -2 200 -2H433V2H200C90.6476 2 2 90.6476 2 200H-2ZM433 1067H200C88.4385 1067 -2 976.562 -2 865H2C2 974.352 90.6476 1063 200 1063H433V1067ZM200 1067C88.4385 1067 -2 976.562 -2 865V200C-2 88.4385 88.4385 -2 200 -2V2C90.6476 2 2 90.6476 2 200V865C2 974.352 90.6476 1063 200 1063V1067ZM433 0V1065V0Z" fill="black" fill-opacity="0.5" mask="url(#path-1-inside-1_249_2)"/>
<path d="M375.695 242.347C375.695 330.353 304.353 401.695 216.347 401.695C128.342 401.695 57 330.353 57 242.347C57 154.342 128.342 83 216.347 83C304.353 83 375.695 154.342 375.695 242.347Z" fill="#1A0935"/>
<path d="M235.272 92.624C251.841 92.624 265.272 106.055 265.272 122.624V181.162H167.11V122.624C167.11 106.055 180.542 92.624 197.11 92.624H235.272Z" fill="#1CB3C4"/>
<path d="M168.721 184.481C166.768 182.528 166.768 179.362 168.721 177.41L212.438 133.692C214.39 131.74 217.556 131.74 219.509 133.692L263.707 177.891C265.66 179.843 265.66 183.009 263.707 184.962L219.99 228.679C218.037 230.632 214.872 230.632 212.919 228.679L168.721 184.481Z" fill="#1CB3C4"/>
<path d="M366.368 261.835C366.368 278.404 352.936 291.835 336.368 291.835H277.829V193.673H336.368C352.936 193.673 366.368 207.105 366.368 223.673V261.835Z" fill="#1CB3C4"/>
<path d="M274.511 195.284C276.464 193.331 279.63 193.331 281.582 195.284L325.299 239.001C327.252 240.954 327.252 244.12 325.299 246.072L281.101 290.27C279.148 292.223 275.983 292.223 274.03 290.27L230.313 246.553C228.36 244.601 228.36 241.435 230.313 239.482L274.511 195.284Z" fill="#1CB3C4"/>
<path d="M197.157 391.968C180.588 391.968 167.157 378.537 167.157 361.968V303.43H265.319V361.968C265.319 378.537 251.888 391.968 235.319 391.968H197.157Z" fill="#1CB3C4"/>
<path d="M263.708 300.112C265.661 302.065 265.661 305.231 263.708 307.183L219.991 350.9C218.038 352.853 214.872 352.853 212.92 350.9L168.721 306.702C166.769 304.749 166.769 301.584 168.721 299.631L212.439 255.914C214.391 253.961 217.557 253.961 219.51 255.914L263.708 300.112Z" fill="#1CB3C4"/>
<path d="M67.0232 223.719C67.0232 207.151 80.4547 193.719 97.0232 193.719H155.562V291.881H97.0232C80.4546 291.881 67.0232 278.45 67.0232 261.881V223.719Z" fill="#1CB3C4"/>
<path d="M158.88 290.271C156.927 292.223 153.761 292.223 151.808 290.271L108.091 246.553C106.139 244.601 106.139 241.435 108.091 239.482L152.29 195.284C154.242 193.331 157.408 193.331 159.361 195.284L203.078 239.001C205.03 240.954 205.03 244.12 203.078 246.072L158.88 290.271Z" fill="#1CB3C4"/>
</svg>
